HIERARCHY
ROOT joint_Root
{
	OFFSET 0.0 0.0 0.0
	CHANNELS 6 Xposition Yposition Zposition Zrotation Xrotation Yrotation 
	JOINT Hips
	{
		OFFSET -0.726466 93.3139 -2.00062
		CHANNELS 6 Xposition Yposition Zposition Zrotation Xrotation Yrotation 
		JOINT Spine
		{
			OFFSET 15.7357 0.0 0.0
			CHANNELS 6 Xposition Yposition Zposition Zrotation Xrotation Yrotation 
			JOINT Chest
			{
				OFFSET 8.98455 -0.406207 0.0
				CHANNELS 6 Xposition Yposition Zposition Zrotation Xrotation Yrotation 
				JOINT Neck
				{
					OFFSET 16.3773 0.0 0.0
					CHANNELS 6 Xposition Yposition Zposition Zrotation Xrotation Yrotation 
					JOINT Head
					{
						OFFSET 6.45672 0.0 0.0
						CHANNELS 6 Xposition Yposition Zposition Zrotation Xrotation Yrotation 
						End Site
						{
							OFFSET 0.0 0.0 0.0
						}
					}
				}
				JOINT Shoulder_L
				{
					OFFSET 12.9942 -0.242716 4.98039
					CHANNELS 6 Xposition Yposition Zposition Zrotation Xrotation Yrotation 
					JOINT UpperArm_L
					{
						OFFSET 5.34809 0.0 0.0
						CHANNELS 6 Xposition Yposition Zposition Zrotation Xrotation Yrotation 
						JOINT LowerArm_L
						{
							OFFSET 24.3286 1.87007e-05 0.0
							CHANNELS 6 Xposition Yposition Zposition Zrotation Xrotation Yrotation 
							JOINT Hand_L
							{
								OFFSET 22.2916 0.0 0.0
								CHANNELS 6 Xposition Yposition Zposition Zrotation Xrotation Yrotation 
								End Site
								{
									OFFSET 0.0 0.0 0.0
								}
							}
						}
					}
				}
				JOINT Shoulder_R
				{
					OFFSET 12.9945 -0.242716 -4.98039
					CHANNELS 6 Xposition Yposition Zposition Zrotation Xrotation Yrotation 
					JOINT UpperArm_R
					{
						OFFSET -5.34813 0.0 0.0
						CHANNELS 6 Xposition Yposition Zposition Zrotation Xrotation Yrotation 
						JOINT LowerArm_R
						{
							OFFSET -24.3289 0.000322201 0.0
							CHANNELS 6 Xposition Yposition Zposition Zrotation Xrotation Yrotation 
							JOINT Hand_R
							{
								OFFSET -22.2915 -0.000108084 0.0
								CHANNELS 6 Xposition Yposition Zposition Zrotation Xrotation Yrotation 
								End Site
								{
									OFFSET 0.0 0.0 0.0
								}
							}
						}
					}
				}
			}
		}
		JOINT UpperLeg_L
		{
			OFFSET -2.19248 -6.46944 0.0
			CHANNELS 6 Xposition Yposition Zposition Zrotation Xrotation Yrotation 
			JOINT LowerLeg_L
			{
				OFFSET 39.0811 0.0 -1.23785e-05
				CHANNELS 6 Xposition Yposition Zposition Zrotation Xrotation Yrotation 
				JOINT Foot_L
				{
					OFFSET 40.9854 0.0 -1.26872e-05
					CHANNELS 6 Xposition Yposition Zposition Zrotation Xrotation Yrotation 
					JOINT Toes_L
					{
						OFFSET 11.7543 0.0 0.0
						CHANNELS 6 Xposition Yposition Zposition Zrotation Xrotation Yrotation 
						End Site
						{
							OFFSET 0.0 0.0 0.0
						}
					}
				}
			}
		}
		JOINT UpperLeg_R
		{
			OFFSET -2.19251 6.46944 0.0
			CHANNELS 6 Xposition Yposition Zposition Zrotation Xrotation Yrotation 
			JOINT LowerLeg_R
			{
				OFFSET -39.0811 -0.00228153 -0.0401928
				CHANNELS 6 Xposition Yposition Zposition Zrotation Xrotation Yrotation 
				JOINT Foot_R
				{
					OFFSET -40.9854 0.0 0.0
					CHANNELS 6 Xposition Yposition Zposition Zrotation Xrotation Yrotation 
					JOINT Toes_R
					{
						OFFSET -11.7543 0.0 0.0
						CHANNELS 6 Xposition Yposition Zposition Zrotation Xrotation Yrotation 
						End Site
						{
							OFFSET 0.0 0.0 0.0
						}
					}
				}
			}
		}
	}
}
MOTION
Frames:	4
Frame Time:	0.0333333
0.000000 0.000000 0.000000 0.000000 0.000000 -0.000000 133.478000 88.879000 149.482000 91.045400 -27.966800 4.919590 15.735700 0.000005 -0.000001 67.181800 82.966400 -65.118600 8.984550 -0.406207 -0.000000 5.321960 -5.487510 4.379410 16.377300 -0.000001 -0.000001 4.676550 -17.687000 3.086280 6.456720 -0.000001 -0.000000 2.709650 -22.382000 7.535110 12.994200 -0.242716 4.980390 -89.110600 -3.128410 -74.121500 5.348090 -0.000007 -0.000001 -62.620800 23.985200 -22.284500 24.328600 0.000019 0.000005 -0.987549 -1.445170 -34.357000 22.291600 -0.000001 0.000005 10.209700 5.524210 -7.537310 12.994500 -0.242716 -4.980390 87.486000 5.878360 -66.795600 -5.348130 -0.000001 -0.000004 -68.344100 20.342200 -6.903690 -24.328900 0.000322 -0.000009 1.133160 12.093100 -5.398390 -22.291500 -0.000108 -0.000004 12.621300 5.289480 0.365450 -2.192480 -6.469440 -0.000000 -171.567000 -15.216500 2.027500 39.081100 -0.000007 -0.000012 0.066735 -0.057694 49.154100 40.985400 -0.000006 -0.000013 -7.904870 2.682330 -55.744600 11.754300 -0.000000 0.000003 -0.082163 -0.397962 -33.108500 -2.192510 6.469440 -0.000001 -168.428000 15.403400 160.588000 -39.081100 -0.002282 -0.040193 -0.059807 0.100375 32.156800 -40.985400 0.000008 0.000006 16.357000 -15.607900 -60.752300 -11.754300 -0.000006 -0.000006 -0.017767 -0.154589 -22.885100
0.000000 0.000000 0.000000 0.000000 0.000000 -0.000000 131.402000 88.846500 152.269000 91.082600 -30.974600 5.814550 15.735700 0.000005 -0.000001 71.308300 82.955800 -69.260200 8.984550 -0.406207 -0.000000 5.677890 -4.541370 4.318600 16.377300 -0.000001 -0.000001 4.638070 -17.366800 3.641490 6.456720 -0.000001 -0.000000 3.286140 -22.315800 7.464800 12.994200 -0.242716 4.980390 -89.200700 -2.690910 -73.449800 5.348090 -0.000007 -0.000001 -63.209500 27.665000 -19.054700 24.328600 0.000019 0.000005 0.652794 0.906604 -35.748200 22.291600 -0.000001 0.000005 6.691850 5.507980 -6.856750 12.994500 -0.242716 -4.980390 87.380500 6.202660 -67.050400 -5.348130 -0.000001 -0.000004 -68.808300 21.739800 -8.549250 -24.328900 0.000322 -0.000009 1.502570 11.705900 -7.372400 -22.291500 -0.000108 -0.000004 12.276000 5.305330 -0.078145 -2.192480 -6.469440 -0.000000 -171.969000 -12.150300 -2.477150 39.081100 -0.000007 -0.000012 0.104378 -0.064627 58.234200 40.985400 -0.000006 -0.000013 -8.566090 0.444261 -46.403800 11.754300 -0.000000 0.000003 -0.013358 -0.127228 -21.765400 -2.192510 6.469440 -0.000001 -168.814000 15.681200 163.829000 -39.081100 -0.002282 -0.040193 -0.049302 0.079657 33.436400 -40.985400 0.000008 0.000006 15.997600 -13.505900 -64.547700 -11.754300 -0.000006 -0.000006 -0.014507 -0.134692 -22.067700
0.000000 0.000000 0.000000 0.000000 0.000000 -0.000000 129.502000 88.757100 154.767000 91.099900 -34.628500 6.297850 15.735700 0.000005 -0.000001 76.647100 82.936200 -74.613500 8.984550 -0.406207 -0.000000 6.048970 -3.284410 4.237110 16.377300 -0.000001 -0.000001 4.513880 -16.899500 3.880770 6.456720 -0.000001 -0.000000 3.068170 -22.500900 7.668370 12.994200 -0.242716 4.980390 -89.316700 -2.205100 -72.779000 5.348090 -0.000007 -0.000001 -63.893200 31.610700 -15.789200 24.328600 0.000019 0.000005 1.937410 2.569560 -37.034300 22.291600 -0.000001 0.000005 4.957440 5.510850 -6.977140 12.994500 -0.242716 -4.980390 87.319200 6.506890 -67.550500 -5.348130 -0.000001 -0.000004 -69.061800 23.812200 -10.645200 -24.328900 0.000322 -0.000009 1.782670 9.893530 -10.274800 -22.291500 -0.000108 -0.000004 11.581000 5.339540 -1.066140 -2.192480 -6.469440 -0.000000 -172.705000 -9.850890 -6.525100 39.081100 -0.000007 -0.000012 0.050039 -0.022783 65.514900 40.985400 -0.000006 -0.000013 -7.093990 0.092663 -46.362000 11.754300 -0.000000 0.000003 -0.007863 -0.086922 -20.116200 -2.192510 6.469440 -0.000001 -169.049000 14.000800 166.744000 -39.081100 -0.002282 -0.040193 0.010592 -0.010753 34.169500 -40.985400 0.000008 0.000006 16.244400 -12.507900 -67.305600 -11.754300 -0.000006 -0.000006 -0.012441 -0.121051 -21.508500
0.000000 0.000000 0.000000 0.000000 0.000000 -0.000000 127.712000 88.898500 157.164000 91.800000 -38.779600 7.307530 15.735700 0.000005 -0.000001 82.182500 82.808700 -80.420400 8.984550 -0.406207 -0.000000 6.518630 -1.969470 3.632920 16.377300 -0.000001 -0.000001 4.586200 -16.251800 4.059350 6.456720 -0.000001 -0.000000 2.859680 -22.529300 7.853190 12.994200 -0.242716 4.980390 -89.267800 -2.252940 -71.991600 5.348090 -0.000007 -0.000001 -66.063900 34.926000 -11.995900 24.328600 0.000019 0.000005 2.537650 3.355590 -37.131500 22.291600 -0.000001 0.000005 5.309130 5.522670 -7.475600 12.994500 -0.242716 -4.980390 87.320600 6.764910 -68.333100 -5.348130 -0.000001 -0.000004 -68.767500 27.450800 -13.235100 -24.328900 0.000322 -0.000009 1.828520 7.530440 -13.699100 -22.291500 -0.000108 -0.000004 10.854900 5.359080 -1.651930 -2.192480 -6.469440 -0.000000 -174.135000 -7.634740 -9.854210 39.081100 -0.000007 -0.000012 -0.030659 0.011244 69.869400 40.985400 -0.000006 -0.000013 -4.858630 -0.902688 -49.001200 11.754300 -0.000000 0.000003 -0.007616 -0.084882 -20.032900 -2.192510 6.469440 -0.000001 -169.992000 12.056700 170.343000 -39.081100 -0.002282 -0.040193 0.062901 -0.089385 33.697800 -40.985400 0.000008 0.000006 16.517300 -10.969700 -69.454400 -11.754300 -0.000006 -0.000006 -0.010603 -0.108092 -20.977900
